<?xml version="1.0" standalone="no"?>
<!DOCTYPE svg PUBLIC "-//W3C//DTD SVG 20010904//EN"
 "http://www.w3.org/TR/2001/REC-SVG-20010904/DTD/svg10.dtd">
<svg version="1.0" xmlns="http://www.w3.org/2000/svg"
 width="128.000000pt" height="128.000000pt" viewBox="0 0 128.000000 128.000000"
 preserveAspectRatio="xMidYMid meet">
<metadata>
Created by potrace 1.11, written by Peter Selinger 2001-2013
</metadata>
<g transform="translate(0.000000,128.000000) scale(0.100000,-0.100000)"
fill="#000000" stroke="none">
<path d="M163 1089 c-26 -10 -24 21 -25 -339 -1 -291 3 -311 75 -358 l39 -26
262 -1 c286 0 343 5 380 32 34 25 66 84 66 122 0 30 1 31 48 31 100 1 197 62
245 155 26 50 31 149 10 210 -19 58 -82 128 -141 157 -47 23 -47 23 -492 24
-245 1 -455 -2 -467 -7z m902 -143 c38 -16 63 -50 74 -98 18 -77 -47 -157
-130 -161 l-44 -2 -3 138 -3 137 36 0 c20 0 51 -6 70 -14z"/>
<path d="M0 214 c0 -50 4 -64 22 -81 45 -40 71 -42 574 -43 456 0 488 1 528
19 24 10 55 34 69 52 30 41 51 108 34 110 -7 1 -285 2 -620 3 l-607 1 0 -61z"/>
</g>
</svg>
